# File produced by Open Asset Import Library (http://www.assimp.sf.net)
# (assimp v3.1.76522261)

mtllib Meter_PS_Bar_1.obj.mtl

# 88 vertex positions
v  -0.753757 5.99434 27.5028
v  -13.3901 5.58575 28.284
v  -0.753757 5.99434 28.284
v  -13.3901 5.58575 29.0653
v  -0.753757 5.99434 29.0653
v  -13.3901 5.58575 27.5028
v  -26.0265 5.22325 28.284
v  -26.0265 5.22325 29.0653
v  -13.3901 5.58575 29.8466
v  -26.0265 5.22325 29.8466
v  -0.753757 5.99434 29.8466
v  -13.3901 5.58575 30.6279
v  -26.0265 5.22325 30.6279
v  -38.6629 4.91273 29.8466
v  -38.6629 4.91273 30.6279
v  -38.6629 4.91273 29.0653
v  -51.2993 4.46677 29.8466
v  -51.2993 4.46677 30.6279
v  -38.6629 4.91273 31.4092
v  -51.2993 4.46677 31.4092
v  -26.0265 5.22325 31.4092
v  -38.6629 4.91273 32.1905
v  -51.2993 4.46677 32.1905
v  -63.9356 3.4823 31.4092
v  -63.9356 3.4823 32.1905
v  -63.9356 3.4823 30.6279
v  -76.572 2.26302 31.4092
v  -76.572 2.26302 32.1905
v  -63.9356 3.4823 32.9718
v  -76.572 2.26302 32.9718
v  -51.2993 4.46677 32.9718
v  -38.6629 4.91273 32.9718
v  -26.0265 5.22325 32.1905
v  -26.0265 5.22325 32.9718
v  -13.3901 5.58575 31.4092
v  -13.3901 5.58575 32.1905
v  -13.3901 5.58575 32.9718
v  -0.753757 5.99434 31.4092
v  -0.753757 5.99434 32.1905
v  -0.753757 5.99434 30.6279
v  -0.753757 5.99434 32.9718
v  -89.2084 1.01509 32.1905
v  -89.2084 1.01509 32.9718
v  -76.572 2.26302 30.6279
v  -89.2084 1.01509 31.4092
v  -63.9356 3.4823 29.8466
v  -76.572 2.26302 29.8466
v  -89.2084 1.01509 30.6279
v  -101.845 -0.589947 31.4092
v  -101.845 -0.589947 32.1905
v  -89.2084 1.01509 29.8466
v  -101.845 -0.589947 30.6279
v  -113.99 -2.47234 31.4092
v  -113.99 -2.47234 32.1905
v  -101.845 -0.589947 32.9718
v  -113.99 -2.47234 32.9718
v  -123.006 -4.45072 32.1905
v  -121.562 -3.98133 32.9718
v  -123.667 -4.71516 31.4092
v  -113.99 -2.47234 30.6279
v  -124.047 -4.68889 30.6279
v  -101.845 -0.589947 29.8466
v  -113.99 -2.47234 29.8466
v  -124.047 -4.68889 29.8466
v  -101.845 -0.589947 29.0653
v  -113.99 -2.47234 29.0653
v  -89.2084 1.01509 29.0653
v  -89.2084 1.01509 28.284
v  -101.845 -0.589947 28.284
v  -113.99 -2.47234 28.284
v  -123.667 -4.71516 29.0653
v  -89.2084 1.01509 27.5028
v  -101.845 -0.589947 27.5028
v  -76.572 2.26302 27.5028
v  -76.572 2.26302 28.284
v  -63.9356 3.4823 27.5028
v  -63.9356 3.4823 28.284
v  -76.572 2.26302 29.0653
v  -51.2993 4.46677 27.5028
v  -51.2993 4.46677 28.284
v  -63.9356 3.4823 29.0653
v  -51.2993 4.46677 29.0653
v  -38.6629 4.91273 27.5028
v  -38.6629 4.91273 28.284
v  -26.0265 5.22325 27.5028
v  -113.99 -2.47234 27.5028
v  -123.006 -4.45072 28.284
v  -121.562 -3.98133 27.5028

# 88 UV coordinates
vt 0 0 0
vt 0.1 0.142857 0
vt 0 0.142857 0
vt 0.1 0.285714 0
vt 0 0.285714 0
vt 0.1 0 0
vt 0.2 0.142857 0
vt 0.2 0.285714 0
vt 0.1 0.428571 0
vt 0.2 0.428571 0
vt 0 0.428571 0
vt 0.1 0.571429 0
vt 0.2 0.571429 0
vt 0.3 0.428571 0
vt 0.3 0.571429 0
vt 0.3 0.285714 0
vt 0.4 0.428571 0
vt 0.4 0.571429 0
vt 0.3 0.714286 0
vt 0.4 0.714286 0
vt 0.2 0.714286 0
vt 0.3 0.857143 0
vt 0.4 0.857143 0
vt 0.5 0.714286 0
vt 0.5 0.857143 0
vt 0.5 0.571429 0
vt 0.6 0.714286 0
vt 0.6 0.857143 0
vt 0.5 1 0
vt 0.6 1 0
vt 0.4 1 0
vt 0.3 1 0
vt 0.2 0.857143 0
vt 0.2 1 0
vt 0.1 0.714286 0
vt 0.1 0.857143 0
vt 0.1 1 0
vt 0 0.714286 0
vt 0 0.857143 0
vt 0 0.571429 0
vt 0 1 0
vt 0.7 0.857143 0
vt 0.7 1 0
vt 0.6 0.571429 0
vt 0.7 0.714286 0
vt 0.5 0.428571 0
vt 0.6 0.428571 0
vt 0.7 0.571429 0
vt 0.8 0.714286 0
vt 0.8 0.857143 0
vt 0.7 0.428571 0
vt 0.8 0.571429 0
vt 0.9 0.714286 0
vt 0.9 0.857143 0
vt 0.8 1 0
vt 0.9 1 0
vt 1 0.857143 0
vt 1 1 0
vt 1 0.714286 0
vt 0.9 0.571429 0
vt 1 0.571429 0
vt 0.8 0.428571 0
vt 0.9 0.428571 0
vt 1 0.428571 0
vt 0.8 0.285714 0
vt 0.9 0.285714 0
vt 0.7 0.285714 0
vt 0.7 0.142857 0
vt 0.8 0.142857 0
vt 0.9 0.142857 0
vt 1 0.285714 0
vt 0.7 0 0
vt 0.8 0 0
vt 0.6 0 0
vt 0.6 0.142857 0
vt 0.5 0 0
vt 0.5 0.142857 0
vt 0.6 0.285714 0
vt 0.4 0 0
vt 0.4 0.142857 0
vt 0.5 0.285714 0
vt 0.4 0.285714 0
vt 0.3 0 0
vt 0.3 0.142857 0
vt 0.2 0 0
vt 0.9 0 0
vt 1 0.142857 0
vt 1 0 0

# 25 vertex normals
vn -0.032317 0.999478 0
vn -0.030496 0.999535 0
vn -0.026621 0.999646 0
vn -0.029918 0.999552 0
vn -0.056484 0.998403 0
vn -0.086862 0.99622 0
vn -0.097161 0.995269 0
vn -0.112153 0.993691 0
vn -0.139595 0.990209 0
vn -0.186872 0.982382 -0.001864
vn -0.179397 0.983772 -0.00306
vn -0.174349 0.984684 0
vn -0.221191 0.964855 -0.141878
vn -0.210109 0.960927 -0.180203
vn -0.218349 0.974486 0.051962
vn -0.186809 0.982395 0.001719
vn -0.214873 0.974957 0.057335
vn -0.184285 0.982873 0
vn -0.219004 0.974146 -0.055474
vn -0.18707 0.982345 -0.001719
vn -0.186573 0.982439 0.001864
vn -0.222306 0.973115 -0.060221
vn -0.183323 0.983034 0.006127
vn -0.209126 0.965697 0.153935
vn -0.190574 0.956208 0.222145

# Mesh 'Plane02' with 140 faces
g Plane02
usemtl PDX02_-_Default
f  1/1/1 2/2/2 3/3/1
f  3/3/1 4/4/2 5/5/1
f  4/4/2 3/3/1 2/2/2
f  2/2/2 1/1/1 6/6/2
f  6/6/2 7/7/3 2/2/2
f  2/2/2 8/8/3 4/4/2
f  8/8/3 2/2/2 7/7/3
f  9/9/2 5/5/1 4/4/2
f  4/4/2 10/10/3 9/9/2
f  10/10/3 4/4/2 8/8/3
f  5/5/1 9/9/2 11/11/1
f  12/12/2 11/11/1 9/9/2
f  9/9/2 13/13/3 12/12/2
f  13/13/3 9/9/2 10/10/3
f  8/8/3 14/14/4 10/10/3
f  10/10/3 15/15/4 13/13/3
f  15/15/4 10/10/3 14/14/4
f  7/7/3 16/16/4 8/8/3
f  14/14/4 8/8/3 16/16/4
f  16/16/4 17/17/5 14/14/4
f  14/14/4 18/18/5 15/15/4
f  18/18/5 14/14/4 17/17/5
f  19/19/4 13/13/3 15/15/4
f  15/15/4 20/20/5 19/19/4
f  20/20/5 15/15/4 18/18/5
f  21/21/3 12/12/2 13/13/3
f  13/13/3 19/19/4 21/21/3
f  22/22/4 21/21/3 19/19/4
f  19/19/4 23/23/5 22/22/4
f  23/23/5 19/19/4 20/20/5
f  18/18/5 24/24/6 20/20/5
f  20/20/5 25/25/6 23/23/5
f  25/25/6 20/20/5 24/24/6
f  17/17/5 26/26/6 18/18/5
f  24/24/6 18/18/5 26/26/6
f  26/26/6 27/27/7 24/24/6
f  24/24/6 28/28/7 25/25/6
f  28/28/7 24/24/6 27/27/7
f  29/29/6 23/23/5 25/25/6
f  25/25/6 30/30/7 29/29/6
f  30/30/7 25/25/6 28/28/7
f  31/31/5 22/22/4 23/23/5
f  23/23/5 29/29/6 31/31/5
f  22/22/4 31/31/5 32/32/4
f  33/33/3 32/32/4 34/34/3
f  32/32/4 33/33/3 22/22/4
f  35/35/2 33/33/3 36/36/2
f  33/33/3 35/35/2 21/21/3
f  21/21/3 22/22/4 33/33/3
f  34/34/3 36/36/2 33/33/3
f  36/36/2 34/34/3 37/37/2
f  38/38/1 36/36/2 39/39/1
f  36/36/2 38/38/1 35/35/2
f  37/37/2 39/39/1 36/36/2
f  40/40/1 35/35/2 38/38/1
f  35/35/2 40/40/1 12/12/2
f  12/12/2 21/21/3 35/35/2
f  11/11/1 12/12/2 40/40/1
f  39/39/1 37/37/2 41/41/1
f  27/27/7 42/42/8 28/28/7
f  28/28/7 43/43/8 30/30/7
f  43/43/8 28/28/7 42/42/8
f  27/27/7 26/26/6 44/44/7
f  44/44/7 45/45/8 27/27/7
f  42/42/8 27/27/7 45/45/8
f  26/26/6 17/17/5 46/46/6
f  46/46/6 44/44/7 26/26/6
f  44/44/7 46/46/6 47/47/7
f  47/47/7 48/48/8 44/44/7
f  45/45/8 44/44/7 48/48/8
f  48/48/8 49/49/9 45/45/8
f  45/45/8 50/50/9 42/42/8
f  50/50/9 45/45/8 49/49/9
f  48/48/8 47/47/7 51/51/8
f  51/51/8 52/52/9 48/48/8
f  49/49/9 48/48/8 52/52/9
f  52/52/9 53/53/10 49/49/9
f  49/49/9 54/54/11 50/50/9
f  54/54/11 49/49/9 53/53/10
f  55/55/9 42/42/8 50/50/9
f  50/50/9 56/56/12 55/55/9
f  56/56/12 50/50/9 54/54/11
f  42/42/8 55/55/9 43/43/8
f  53/53/10 57/57/13 54/54/11
f  54/54/11 58/58/14 56/56/12
f  57/57/13 53/53/10 59/59/15
f  53/53/10 52/52/9 60/60/16
f  60/60/16 59/59/15 53/53/10
f  59/59/15 60/60/16 61/61/17
f  62/62/9 60/60/16 52/52/9
f  60/60/16 62/62/9 63/63/18
f  63/63/18 61/61/17 60/60/16
f  61/61/17 63/63/18 64/64/19
f  65/65/9 63/63/18 62/62/9
f  63/63/18 65/65/9 66/66/20
f  66/66/20 64/64/19 63/63/18
f  67/67/8 62/62/9 51/51/8
f  62/62/9 67/67/8 65/65/9
f  52/52/9 51/51/8 62/62/9
f  68/68/8 65/65/9 67/67/8
f  65/65/9 68/68/8 69/69/9
f  69/69/9 66/66/20 65/65/9
f  66/66/20 69/69/9 70/70/21
f  70/70/21 71/71/22 66/66/20
f  64/64/19 66/66/20 71/71/22
f  72/72/8 69/69/9 68/68/8
f  69/69/9 72/72/8 73/73/9
f  73/73/9 70/70/21 69/69/9
f  74/74/7 68/68/8 75/75/7
f  68/68/8 74/74/7 72/72/8
f  67/67/8 75/75/7 68/68/8
f  75/75/7 76/76/6 74/74/7
f  76/76/6 75/75/7 77/77/6
f  78/78/7 77/77/6 75/75/7
f  75/75/7 67/67/8 78/78/7
f  77/77/6 79/79/5 76/76/6
f  79/79/5 77/77/6 80/80/5
f  81/81/6 80/80/5 77/77/6
f  77/77/6 78/78/7 81/81/6
f  47/47/7 81/81/6 78/78/7
f  78/78/7 51/51/8 47/47/7
f  51/51/8 78/78/7 67/67/8
f  80/80/5 81/81/6 82/82/5
f  46/46/6 82/82/5 81/81/6
f  81/81/6 47/47/7 46/46/6
f  83/83/4 80/80/5 84/84/4
f  80/80/5 83/83/4 79/79/5
f  82/82/5 84/84/4 80/80/5
f  84/84/4 82/82/5 16/16/4
f  17/17/5 16/16/4 82/82/5
f  82/82/5 46/46/6 17/17/5
f  85/85/3 84/84/4 7/7/3
f  84/84/4 85/85/3 83/83/4
f  16/16/4 7/7/3 84/84/4
f  7/7/3 6/6/2 85/85/3
f  70/70/21 73/73/9 86/86/23
f  86/86/23 87/87/24 70/70/21
f  71/71/22 70/70/21 87/87/24
f  87/87/24 86/86/23 88/88/25
f  58/58/14 54/54/11 57/57/13

